<svg width="49" height="48" viewBox="0 0 49 48" fill="none" xmlns="http://www.w3.org/2000/svg">
<g clip-path="url(#clip0_4064_20282)">
<path d="M6.25 44H43C45.0711 44 46.75 42.321 46.75 40.25C46.75 39.5212 46.5421 38.8408 46.1822 38.2652L27.8072 8.26522C27.1447 7.20519 25.9672 6.5 24.625 6.5C23.2828 6.5 22.1053 7.20519 21.4427 8.26522L3.06775 38.2652C2.70794 38.8408 2.5 39.5212 2.5 40.25C2.5 42.321 4.17887 44 6.25 44Z" stroke="#5961FF" stroke-width="3" stroke-miterlimit="10"/>
<path d="M26.5 36.5C26.5 37.5356 25.6606 38.375 24.625 38.375C23.5894 38.375 22.75 37.5356 22.75 36.5C22.75 35.4644 23.5894 34.625 24.625 34.625C25.6606 34.625 26.5 35.4644 26.5 36.5Z" fill="#5961FF"/>
<path d="M24.625 15.875V30.875" stroke="#5961FF" stroke-width="3" stroke-miterlimit="10" stroke-linecap="round"/>
</g>
<defs>
<clipPath id="clip0_4064_20282">
<rect width="48" height="48" fill="white" transform="translate(0.5)"/>
</clipPath>
</defs>
</svg>
