<svg width="16" height="16" viewBox="0 0 16 16" fill="none" xmlns="http://www.w3.org/2000/svg">
<path d="M1.79307 4.46979C1.68429 4.21597 1.39035 4.0984 1.13654 4.20718C0.882722 4.31595 0.765146 4.60989 0.873924 4.86371L1.79307 4.46979ZM10.3916 8.88588L10.2085 8.42063L10.3916 8.88588ZM6.0278 9.15858C6.1784 8.92712 6.11286 8.61739 5.8814 8.46679C5.64994 8.31619 5.34022 8.38173 5.18961 8.61319L6.0278 9.15858ZM4.24774 10.0607C4.09713 10.2922 4.16268 10.6019 4.39414 10.7525C4.62559 10.9031 4.93532 10.8376 5.08592 10.6061L4.24774 10.0607ZM15.1264 4.86371C15.2352 4.60989 15.1176 4.31595 14.8638 4.20718C14.61 4.0984 14.316 4.21597 14.2073 4.46979L15.1264 4.86371ZM12.6668 7.41931L12.3246 7.05474L12.6668 7.41931ZM13.3133 8.77286C13.5085 8.96812 13.8251 8.96812 14.0204 8.77286C14.2156 8.5776 14.2156 8.26102 14.0204 8.06575L13.3133 8.77286ZM7.50016 11.0001C7.50016 11.2762 7.72402 11.5001 8.00016 11.5001C8.27631 11.5001 8.50016 11.2762 8.50016 11.0001H7.50016ZM10.9144 10.6061C11.065 10.8376 11.3747 10.9031 11.6062 10.7525C11.8376 10.6019 11.9032 10.2922 11.7526 10.0607L10.9144 10.6061ZM3.68705 7.77286C3.88231 7.5776 3.88231 7.26102 3.68705 7.06575C3.49179 6.87049 3.1752 6.87049 2.97994 7.06575L3.68705 7.77286ZM1.97994 8.06575C1.78468 8.26102 1.78468 8.5776 1.97994 8.77286C2.1752 8.96812 2.49179 8.96812 2.68705 8.77286L1.97994 8.06575ZM8.00016 8.83342C5.8509 8.83342 4.30771 7.76315 3.28323 6.65986C2.77113 6.10837 2.39566 5.55531 2.14856 5.14017C2.02529 4.93308 1.93474 4.76163 1.87576 4.64366C1.84629 4.58472 1.82476 4.53925 1.81101 4.50949C1.80414 4.49462 1.79922 4.48368 1.79624 4.47697C1.79475 4.47361 1.79374 4.47131 1.79321 4.4701C1.79295 4.4695 1.7928 4.46917 1.79278 4.46911C1.79277 4.46909 1.79279 4.46913 1.79283 4.46924C1.79286 4.4693 1.79292 4.46943 1.79293 4.46946C1.79299 4.46962 1.79307 4.46979 1.3335 4.66675C0.873924 4.86371 0.874013 4.86392 0.874109 4.86414C0.874152 4.86424 0.874257 4.86448 0.874342 4.86468C0.874512 4.86508 0.874714 4.86554 0.874947 4.86608C0.875412 4.86716 0.876003 4.86852 0.876718 4.87016C0.878149 4.87344 0.88008 4.87783 0.882513 4.8833C0.887381 4.89425 0.894263 4.90952 0.90318 4.92882C0.921011 4.96743 0.947004 5.02222 0.981335 5.09088C1.04996 5.22812 1.15212 5.42125 1.28927 5.65166C1.563 6.11152 1.97919 6.72513 2.55043 7.34031C3.69261 8.57035 5.48276 9.83342 8.00016 9.83342V8.83342ZM10.2085 8.42063C9.56158 8.67526 8.82797 8.83342 8.00016 8.83342V9.83342C8.95897 9.83342 9.81655 9.64957 10.5748 9.35114L10.2085 8.42063ZM5.18961 8.61319L4.24774 10.0607L5.08592 10.6061L6.0278 9.15858L5.18961 8.61319ZM14.6668 4.66675C14.2073 4.46979 14.2073 4.46969 14.2073 4.46959C14.2074 4.46957 14.2074 4.46948 14.2074 4.46943C14.2075 4.46933 14.2075 4.46926 14.2075 4.4692C14.2076 4.4691 14.2076 4.46908 14.2075 4.46914C14.2075 4.46928 14.2073 4.46976 14.2069 4.47059C14.2062 4.47223 14.2049 4.47525 14.2029 4.47958C14.1991 4.48823 14.1928 4.50214 14.184 4.52091C14.1665 4.55846 14.1392 4.61538 14.1019 4.68853C14.0272 4.83493 13.9129 5.04562 13.7571 5.29555C13.4448 5.79685 12.971 6.44806 12.3246 7.05474L13.009 7.78387C13.7351 7.1024 14.2613 6.37733 14.6058 5.82439C14.7786 5.5472 14.9068 5.31128 14.9927 5.14285C15.0357 5.05858 15.0682 4.99103 15.0904 4.94346C15.1014 4.91967 15.11 4.90087 15.116 4.88744C15.119 4.88073 15.1213 4.87536 15.1231 4.87139C15.1239 4.8694 15.1247 4.86777 15.1252 4.86648C15.1255 4.86584 15.1257 4.86529 15.1259 4.86483C15.126 4.8646 15.1261 4.86439 15.1262 4.8642C15.1262 4.86411 15.1263 4.86398 15.1263 4.86394C15.1264 4.86382 15.1264 4.86371 14.6668 4.66675ZM12.3246 7.05474C11.752 7.59225 11.0494 8.08963 10.2085 8.42063L10.5748 9.35114C11.5572 8.96446 12.3646 8.38876 13.009 7.78387L12.3246 7.05474ZM12.3133 7.77286L13.3133 8.77286L14.0204 8.06575L13.0204 7.06575L12.3133 7.77286ZM7.50016 9.33342V11.0001H8.50016V9.33342H7.50016ZM9.97253 9.15857L10.9144 10.6061L11.7526 10.0607L10.8107 8.61319L9.97253 9.15857ZM2.97994 7.06575L1.97994 8.06575L2.68705 8.77286L3.68705 7.77286L2.97994 7.06575Z" fill="#5961FF"/>
</svg>
