<svg width="16" height="12" viewBox="0 0 16 12" fill="none" xmlns="http://www.w3.org/2000/svg">
<path d="M2.18326 8.19707C1.61665 7.46094 1.33334 7.09288 1.33334 5.99996C1.33334 4.90704 1.61665 4.53898 2.18326 3.80285C3.31465 2.333 5.21208 0.666626 8 0.666626C10.7879 0.666626 12.6854 2.333 13.8167 3.80285C14.3834 4.53898 14.6667 4.90704 14.6667 5.99996C14.6667 7.09288 14.3834 7.46094 13.8167 8.19707C12.6854 9.66692 10.7879 11.3333 8 11.3333C5.21208 11.3333 3.31465 9.66692 2.18326 8.19707Z" stroke="#5961FF"/>
<path d="M9.99984 6C9.99984 7.10457 9.10441 8 7.99984 8C6.89527 8 5.99984 7.10457 5.99984 6C5.99984 4.89543 6.89527 4 7.99984 4C9.10441 4 9.99984 4.89543 9.99984 6Z" stroke="#5961FF"/>
</svg>
